<?xml version="1.0" encoding="UTF-8" standalone="no"?>
<svg
   width="900"
   height="900"
   viewBox="0 0 843.74962 843.7502"
   version="1.1"
   id="svg115"
   sodipodi:docname="favicon.svg"
   inkscape:version="1.2.2 (732a01da63, 2022-12-09)"
   xmlns:inkscape="http://www.inkscape.org/namespaces/inkscape"
   xmlns:sodipodi="http://sodipodi.sourceforge.net/DTD/sodipodi-0.dtd"
   xmlns="http://www.w3.org/2000/svg"
   xmlns:svg="http://www.w3.org/2000/svg">
  <sodipodi:namedview
     id="namedview117"
     pagecolor="#ffffff"
     bordercolor="#000000"
     borderopacity="0.25"
     inkscape:showpageshadow="2"
     inkscape:pageopacity="0.0"
     inkscape:pagecheckerboard="0"
     inkscape:deskcolor="#d1d1d1"
     showgrid="false"
     inkscape:zoom="1.096263"
     inkscape:cx="399.53916"
     inkscape:cy="467.9534"
     inkscape:window-width="2560"
     inkscape:window-height="1369"
     inkscape:window-x="2552"
     inkscape:window-y="-8"
     inkscape:window-maximized="1"
     inkscape:current-layer="svg115" />
  <defs
     id="defs37" />
  <g
     id="g518"
     transform="translate(18.73557,10.175451)">
    <ellipse
       cx="203.76401"
       cy="385.00897"
       ry="127.345"
       rx="126.848"
       id="ellipse63"
       style="fill:#1f2d41" />
    <ellipse
       cx="471.96701"
       cy="84.89801"
       ry="84.897003"
       rx="84.565002"
       id="ellipse65"
       style="fill:#1f2d41" />
    <g
       fill-rule="evenodd"
       id="g71"
       transform="translate(0,1179.638)"
       style="fill:#1f2d41">
      <path
         d="m 163.139,-653.99 c -11.569,0.281 -16.003,7.894 -18.469,11.606 l -139.894,241.8 c -14.081,25.472 5.653,44.344 24.441,44.344 h 349.509 c 18.806,0 38.531,-18.872 23.503,-44.344 L 263.32,-642.131 c -2.972,-5.597 -9.422,-14.503 -25.687,-10.641 -20.719,4.922 -47.025,4.922 -67.294,-0.516 -2.663,-0.534 -5.062,-0.75 -7.2,-0.694 z m 40.622,47.784 c 15.656,0 31.313,27.778 63.281,83.344 63.9,111.113 64.538,110.016 -63.281,110.016 -127.809,0 -127.172,1.097 -63.281,-110.025 31.969,-55.556 47.625,-83.344 63.281,-83.344 z"
         id="path67" />
      <path
         d="m 166.419,-629.951 c -10.635,0.259 -14.711,7.256 -16.978,10.669 L 20.843,-397.004 c -12.945,23.415 5.196,40.764 22.467,40.764 h 321.291 c 17.288,0 35.42,-17.348 21.606,-40.764 L 258.512,-619.049 c -2.732,-5.145 -8.661,-13.332 -23.614,-9.782 -19.046,4.525 -43.228,4.525 -61.861,-0.474 -2.448,-0.491 -4.654,-0.689 -6.619,-0.638 z m 37.342,43.926 c 14.392,0 28.784,25.535 58.172,76.615 58.741,102.142 59.327,101.133 -58.172,101.133 -117.49,0 -116.904,1.008 -58.172,-101.142 29.388,-51.071 43.78,-76.615 58.172,-76.615 z"
         id="path69" />
    </g>
    <path
       d="m 575.274,95.271 65.783,42.151 c -14.469,5.602 -40.637,24.001 -36.022,63.098 l -78.29,-27.081 c 24.374,-21.092 39.251,-31.036 48.528,-78.168 z"
       paint-order="fill markers stroke"
       id="path79"
       style="fill:#1f2d41" />
    <path
       fill-rule="evenodd"
       d="m 375.051,121.304 -149.55,119.85 a 145.106,145.669 0 0 1 118.781,108 l 0.656,1.191 104.063,-164.157 a 102.975,103.378 0 0 1 -73.95,-64.903 z"
       id="path81"
       style="fill:#1f2d41" />
    <ellipse
       cx="681.33136"
       cy="-106.86095"
       ry="47.377998"
       rx="47.193001"
       transform="rotate(24.98)"
       id="ellipse83"
       style="fill:#1f2d41" />
    <path
       d="m 777.469,191.075 c 2.22,0.889 4.333,1.682 5.925,2.799 1.707,1.637 2.177,3.459 2.861,5.526 l 19.507,67.057 c 0.262,5.062 2.693,6.577 -5.852,12.154 -6.296,4.2 -8.039,3.061 -13.445,-2.025 l -27.087,-46.312 c -1.118,-1.779 -4.785,-8.505 -7.659,-10.352 -2.964,-1.938 -7.406,-1.645 -9.521,-1.495 l -28.8,1.067 c 8.77,-16.999 8.533,-36.267 3.2,-49.067 l 60.87,20.648 z m -168.604,24.152 c -4.806,24.402 -10.244,48.674 -15.486,72.986 -0.316,2.407 -0.662,4.671 -0.47,6.637 0.588,2.326 1.945,3.652 3.41,5.289 l 48.847,50.725 c 4.281,2.759 4.408,5.665 13.462,0.892 6.75,-3.471 6.613,-5.581 4.836,-12.9 l -27.053,-47.072 c -1.001,-1.877 -5.062,-8.477 -5.259,-11.941 -0.234,-3.589 2.202,-7.371 3.371,-9.165 l 19.142,-23.45 c -20.473,-1.808 -37.333,-18.133 -44.8,-32 z"
       paint-order="fill markers stroke"
       fill="#1f2d41"
       id="path93" />
  </g>
</svg>
