<?xml version="1.0" encoding="UTF-8" standalone="no"?>
<!-- Created with Inkscape (http://www.inkscape.org/) -->

<svg
   width="1013.545"
   height="936.81897"
   id="svg2"
   version="1.1"
   inkscape:version="1.2.2 (732a01da63, 2022-12-09)"
   sodipodi:docname="logo-mgh.svg"
   viewBox="0 0 950.19842 878.26778"
   xml:space="preserve"
   xmlns:inkscape="http://www.inkscape.org/namespaces/inkscape"
   xmlns:sodipodi="http://sodipodi.sourceforge.net/DTD/sodipodi-0.dtd"
   xmlns="http://www.w3.org/2000/svg"
   xmlns:svg="http://www.w3.org/2000/svg"
   xmlns:rdf="http://www.w3.org/1999/02/22-rdf-syntax-ns#"
   xmlns:cc="http://creativecommons.org/ns#"
   xmlns:dc="http://purl.org/dc/elements/1.1/"><defs
     id="defs4"><mask
       id="mask0-5-1-4"
       mask-type="alpha"
       maskUnits="userSpaceOnUse"
       x="0"
       y="0"
       width="100"
       height="100"><path
         fill-rule="evenodd"
         clip-rule="evenodd"
         d="m 70.9119,99.3171 c 1.575,0.6136 3.3709,0.5743 4.9606,-0.1907 L 96.4608,89.2197 C 98.6242,88.1787 100,85.9892 100,83.5872 V 16.4133 c 0,-2.402 -1.3757,-4.5915 -3.5391,-5.6325 L 75.8725,0.873756 C 73.7862,-0.130129 71.3446,0.11576 69.5135,1.44695 69.252,1.63711 69.0028,1.84943 68.769,2.08341 L 29.3551,38.0415 12.1872,25.0096 C 10.589,23.7965 8.35363,23.8959 6.86933,25.2461 l -5.5063,5.0088 c -1.815582,1.6515 -1.817663,4.5078 -0.0045,6.1621 L 16.2471,50.0001 1.35853,63.5832 c -1.813163,1.6542 -1.811082,4.5106 0.0045,6.1621 l 5.5063,5.0088 c 1.4843,1.3502 3.71967,1.4496 5.31787,0.2364 L 29.3551,61.9587 68.769,97.9167 c 0.6235,0.6239 1.3556,1.0937 2.1429,1.4004 z M 75.0152,27.2989 45.1091,50.0001 75.0152,72.7012 Z"
         fill="#ffffff"
         id="path2449-0-9-8" /></mask><filter
       id="filter0_d-4-5-1"
       x="-8.3941097"
       y="15.8291"
       width="116.727"
       height="92.245598"
       filterUnits="userSpaceOnUse"
       color-interpolation-filters="sRGB"><feFlood
         flood-opacity="0"
         result="BackgroundImageFix"
         id="feFlood2468-9-5-7" /><feColorMatrix
         in="SourceAlpha"
         type="matrix"
         values="0 0 0 0 0 0 0 0 0 0 0 0 0 0 0 0 0 0 127 0"
         id="feColorMatrix2470-0-1-5" /><feOffset
         id="feOffset2472-9-2-3" /><feGaussianBlur
         stdDeviation="4.16667"
         id="feGaussianBlur2474-4-6-8" /><feColorMatrix
         type="matrix"
         values="0 0 0 0 0 0 0 0 0 0 0 0 0 0 0 0 0 0 0.25 0"
         id="feColorMatrix2476-5-0-0" /><feBlend
         mode="overlay"
         in2="BackgroundImageFix"
         result="effect1_dropShadow"
         id="feBlend2478-5-1-0" /><feBlend
         mode="normal"
         in="SourceGraphic"
         in2="effect1_dropShadow"
         result="shape"
         id="feBlend2480-3-9-9" /></filter><filter
       id="filter1_d-3-8-5"
       x="60.416698"
       y="-8.0755796"
       width="47.916698"
       height="116.151"
       filterUnits="userSpaceOnUse"
       color-interpolation-filters="sRGB"><feFlood
         flood-opacity="0"
         result="BackgroundImageFix"
         id="feFlood2483-4-6-0" /><feColorMatrix
         in="SourceAlpha"
         type="matrix"
         values="0 0 0 0 0 0 0 0 0 0 0 0 0 0 0 0 0 0 127 0"
         id="feColorMatrix2485-8-7-6" /><feOffset
         id="feOffset2487-0-1-7" /><feGaussianBlur
         stdDeviation="4.16667"
         id="feGaussianBlur2489-3-9-7" /><feColorMatrix
         type="matrix"
         values="0 0 0 0 0 0 0 0 0 0 0 0 0 0 0 0 0 0 0.25 0"
         id="feColorMatrix2491-2-3-2" /><feBlend
         mode="overlay"
         in2="BackgroundImageFix"
         result="effect1_dropShadow"
         id="feBlend2493-0-6-0" /><feBlend
         mode="normal"
         in="SourceGraphic"
         in2="effect1_dropShadow"
         result="shape"
         id="feBlend2495-6-3-2" /></filter></defs><sodipodi:namedview
     id="base"
     pagecolor="#ffffff"
     bordercolor="#666666"
     borderopacity="1.0"
     inkscape:pageopacity="0.0"
     inkscape:pageshadow="2"
     inkscape:zoom="1.327579"
     inkscape:cx="503.9248"
     inkscape:cy="439.14523"
     inkscape:document-units="px"
     inkscape:current-layer="layer1"
     showgrid="false"
     gridtolerance="10000"
     inkscape:window-width="2560"
     inkscape:window-height="1369"
     inkscape:window-x="2552"
     inkscape:window-y="-8"
     inkscape:window-maximized="1"
     guidetolerance="10000"
     inkscape:snap-global="true"
     inkscape:snap-bbox="true"
     inkscape:snap-bbox-edge-midpoints="true"
     inkscape:bbox-nodes="true"
     inkscape:snap-grids="true"
     inkscape:snap-to-guides="true"
     showguides="false"
     inkscape:guide-bbox="true"
     inkscape:bbox-paths="true"
     inkscape:snap-bbox-midpoints="true"
     inkscape:showpageshadow="2"
     inkscape:pagecheckerboard="0"
     inkscape:deskcolor="#d1d1d1"><inkscape:grid
       type="xygrid"
       id="grid2985"
       empspacing="5"
       visible="true"
       enabled="true"
       snapvisiblegridlinesonly="true"
       empcolor="#c0504d"
       empopacity="0.19607843"
       color="#8db3e2"
       opacity="0.15686275"
       dotted="false"
       originx="0"
       originy="0"
       spacingx="1.0666667"
       spacingy="1.0666667" /></sodipodi:namedview><metadata
     id="metadata7"><rdf:RDF><cc:Work
         rdf:about=""><dc:format>image/svg+xml</dc:format><dc:type
           rdf:resource="http://purl.org/dc/dcmitype/StillImage" /></cc:Work></rdf:RDF></metadata><g
     inkscape:label="Layer 1"
     inkscape:groupmode="layer"
     id="layer1"
     transform="translate(0,1179.6378)"><g
       id="g1094"
       transform="matrix(0.95727751,0.00163309,-0.00162961,0.95297536,-604.78799,-1280.5992)"><rect
         width="145.20013"
         height="145.20013"
         x="1155.7156"
         y="515.94812"
         fill="#4c6c9c"
         rx="15.401656"
         ry="15.401656"
         id="rect1124-8-2"
         style="fill:#4c6c9c;fill-opacity:1;stroke-width:0.0975807"
         transform="rotate(-0.1)" /><rect
         width="112.094"
         height="112.97062"
         x="1173.2941"
         y="529.91821"
         fill="#4c6c9c"
         rx="15.401657"
         ry="15.401656"
         id="rect1124-7-9-4"
         style="fill:#4c6c9c;fill-opacity:1;stroke-width:0.0975806" /><g
         mask="url(#mask0-5-1-4)"
         id="g2466-9-4"
         transform="translate(1179.341,536.40338)"
         style="fill:#ffffff"><path
           d="M 96.4614,10.7962 75.8569,0.875542 C 73.4719,-0.272773 70.6217,0.211611 68.75,2.08333 L 1.29858,63.5832 c -1.814273,1.6541 -1.812187,4.5105 0.0045,6.162 l 5.50964,5.0088 c 1.48521,1.3502 3.72198,1.4496 5.32108,0.2365 L 93.3609,13.3699 C 96.086,11.3026 100,13.2462 100,16.6667 v -0.2392 c 0,-2.401 -1.3754,-4.5897 -3.5386,-5.6313 z"
           fill="#0065a9"
           id="path2452-7-7"
           style="fill:#ffffff" /><g
           filter="url(#filter0_d)"
           id="g2456-9-4"
           style="fill:#ffffff;filter:url(#filter0_d-4-5-1)"><path
             d="m 96.4614,89.2038 -20.6045,9.9207 c -2.385,1.1485 -5.2352,0.6639 -7.1069,-1.2078 L 1.29858,36.4169 c -1.814273,-1.6542 -1.812187,-4.5106 0.0045,-6.1621 L 6.81272,25.246 C 8.29793,23.8958 10.5347,23.7964 12.1338,25.0095 L 93.3609,86.6301 C 96.086,88.6974 100,86.7538 100,83.3334 v 0.2392 c 0,2.4009 -1.3754,4.5896 -3.5386,5.6312 z"
             fill="#007acc"
             id="path2454-5-5"
             style="fill:#ffffff" /></g><g
           filter="url(#filter1_d)"
           id="g2460-1-9"
           style="fill:#ffffff;filter:url(#filter1_d-3-8-5)"><path
             d="M 75.8578,99.1263 C 73.4721,100.274 70.6219,99.7885 68.75,97.9166 71.0564,100.223 75,98.5895 75,95.3278 V 4.67213 C 75,1.41039 71.0564,-0.223106 68.75,2.08329 70.6219,0.211402 73.4721,-0.273666 75.8578,0.873633 L 96.4587,10.7807 C 98.6234,11.8217 100,14.0112 100,16.4132 v 67.1739 c 0,2.402 -1.3766,4.5915 -3.5414,5.6325 z"
             fill="#1f9cf0"
             id="path2458-1-9"
             style="fill:#ffffff" /></g><g
           style="mix-blend-mode:overlay;fill:#ffffff"
           opacity="0.25"
           id="g2464-2-8"><path
             fill-rule="evenodd"
             clip-rule="evenodd"
             d="m 70.8511,99.3171 c 1.575,0.6135 3.371,0.5742 4.9606,-0.1907 L 96.4,89.2197 c 2.1634,-1.041 3.5392,-3.2305 3.5392,-5.6326 V 16.4133 c 0,-2.4021 -1.3757,-4.5916 -3.5391,-5.6326 L 75.8117,0.873695 C 73.7255,-0.13019 71.2838,0.115699 69.4527,1.44688 69.1912,1.63705 68.942,1.84937 68.7082,2.08335 L 29.2943,38.0414 12.1264,25.0096 C 10.5283,23.7964 8.29285,23.8959 6.80855,25.246 l -5.5063,5.0088 c -1.815584,1.6516 -1.817665,4.5079 -0.0045,6.1621 L 16.1863,50 1.29775,63.5832 c -1.813165,1.6542 -1.811084,4.5105 0.0045,6.162 l 5.5063,5.0088 c 1.4843,1.3502 3.71975,1.4496 5.31785,0.2365 L 29.2943,61.9586 68.7082,97.9167 c 0.6235,0.6238 1.3556,1.0937 2.1429,1.4004 z M 74.9544,27.2989 45.0483,50 74.9544,72.7012 Z"
             fill="url(#paint0_linear)"
             id="path2462-6-9"
             style="fill:#ffffff" /></g></g></g><ellipse
       cx="203.76428"
       cy="-794.62939"
       fill="#1f2d41"
       ry="127.34532"
       rx="126.8475"
       id="ellipse1098"
       style="fill:#1f2d41;fill-opacity:1;stroke-width:0.9375" /><ellipse
       cx="471.96692"
       cy="-1094.7405"
       fill="#1f2d41"
       ry="84.897186"
       rx="84.565315"
       id="ellipse1100"
       style="fill:#1f2d41;fill-opacity:1;stroke-width:0.9375" /><path
       fill="#1f2d41"
       fill-rule="evenodd"
       d="m 163.13873,-653.99036 c -11.5688,0.2812 -16.0032,7.8937 -18.4688,11.6062 l -139.8937,241.8 c -14.0813,25.4719 5.6531,44.3438 24.4406,44.3438 h 349.5093 c 18.8063,0 38.5313,-18.8719 23.5032,-44.3438 l -138.9094,-241.5469 c -2.9719,-5.5969 -9.4219,-14.5031 -25.6875,-10.6406 -20.7188,4.9219 -47.025,4.9219 -67.2937,-0.5156 -2.6626,-0.5344 -5.0625,-0.75 -7.2,-0.6938 z m 40.6218,47.7843 c 15.6563,0 31.3125,27.7782 63.2813,83.3438 63.9,111.1125 64.5375,110.0156 -63.2813,110.0156 -127.8093,0 -127.1718,1.0969 -63.2812,-110.025 31.9687,-55.5562 47.625,-83.3437 63.2812,-83.3437 z"
       id="path1102"
       style="fill:#1f2d41;fill-opacity:1;stroke-width:0.9375" /><path
       fill="#1f2d41"
       fill-rule="evenodd"
       d="m 166.41926,-629.95084 c -10.63476,0.2585 -14.71114,7.25638 -16.97768,10.66915 L 20.84252,-397.00396 c -12.94442,23.41537 5.19668,40.7636 22.46733,40.7636 h 321.29088 c 17.28793,0 35.42039,-17.34823 21.60562,-40.7636 L 258.51211,-619.04903 c -2.73196,-5.14502 -8.6612,-13.33216 -23.61356,-9.78151 -19.04602,4.52452 -43.22833,4.52452 -61.86059,-0.47397 -2.44763,-0.49125 -4.65377,-0.68944 -6.6187,-0.63778 z m 37.34211,43.92633 c 14.39226,0 28.78442,25.53546 58.17214,76.61485 58.74089,102.14158 59.32692,101.13324 -58.17214,101.13324 -117.49033,0 -116.90429,1.00834 -58.17205,-101.14188 29.38764,-51.07075 43.77989,-76.61476 58.17205,-76.61476 z"
       id="path1102-5"
       style="fill:#1f2d41;fill-opacity:1;stroke-width:0.861809" /><g
       id="g7289"
       transform="translate(-422.46814,-581.57321)"><path
         fill="#1f2d41"
         d="m 736.31927,-65.329651 v 0.5156 l 32.8125,57.0280997 h 455.79383 v 0.066 a 84.4875,84.815625 0 0 1 84.4875,84.8156003 84.4875,84.815625 0 0 1 -84.4875,84.815701 v 56.6906 a 141.4125,141.96563 0 0 0 0.45,0.019 141.4125,141.96563 0 0 0 19.7438,-1.5375 l 4.6875,-19.8188 a 122.71875,123.20625 0 0 0 17.3812,-4.8937 l 14.25,14.4375 a 141.4125,141.96563 0 0 0 31.0125,-18.3469 l -5.8594,-19.6406 a 122.71875,123.20625 0 0 0 12.7219,-12.9094 l 19.4344,5.3062 a 141.4125,141.96563 0 0 0 17.6719,-31.5 l -14.7844,-13.9875 a 122.71875,123.20625 0 0 0 4.4531,-17.578101 l 19.6687,-5.2031 a 141.4125,141.96563 0 0 0 1.0313,-16.3125 141.4125,141.96563 0 0 0 -1.5375,-19.8094 l -19.7438,-4.7062 a 122.71875,123.20625 0 0 0 -4.875,-17.4563 l 14.3813,-14.3062 a 141.4125,141.96563 0 0 0 -18.2812,-31.125 l -19.5563,5.8874997 a 122.71875,123.20625 0 0 0 -12.8438,-12.7874997 l 5.2782,-19.5 a 141.4125,141.96563 0 0 0 -31.35,-17.7376 l -13.9594,14.8313 a 122.71875,123.20625 0 0 0 -17.5125,-4.5 l -5.175,-19.7437 a 141.4125,141.96563 0 0 0 -16.2375,-1.0313 141.4125,141.96563 0 0 0 -0.45,0.028 v -0.037 H 736.31927 Z"
         id="path1108"
         style="fill:#1f2d41;fill-opacity:1;stroke-width:0.9375" /><g
         fill="#1f2d41"
         id="g1122"
         style="fill:#1f2d41;fill-opacity:1"
         transform="matrix(0.9375,0,0,0.9375,448.5316,-665.33843)"><path
           d="m 534.8,882.44 v 0.55 l 34.97,59.9 h 261.18 v -60.46 z"
           id="path1118"
           style="fill:#1f2d41;fill-opacity:1" /><path
           d="m 445.9,882.44 v 0.55 l 35,59.9 h 261.17 v -60.46 z"
           id="path1120"
           style="fill:#1f2d41;fill-opacity:1" /></g></g><path
       style="fill:#1f2d41;fill-opacity:1;stroke:none;stroke-width:0.9375;stroke-linejoin:round;stroke-opacity:1;paint-order:fill markers stroke"
       d="m 575.27396,-1084.3674 65.7833,42.1514 c -14.4689,5.6022 -40.6368,24.0014 -36.0218,63.09751 l -78.28962,-27.08081 c 24.37442,-21.0924 39.25072,-31.0356 48.52812,-78.1681 z"
       id="path4182"
       sodipodi:nodetypes="ccccc" /><path
       fill="#1f2d41"
       fill-rule="evenodd"
       d="m 375.05113,-1058.3342 -149.55,119.85004 a 145.10625,145.66875 0 0 1 118.7813,108 c 0.2156,0.4125 0.4406,0.7875 0.6562,1.1906 l 104.0625,-164.1562 a 102.975,103.37812 0 0 1 -73.95,-64.90314 z"
       id="path1104"
       style="fill:#1f2d41;fill-opacity:1;stroke-width:0.9375" /><ellipse
       cx="183.16817"
       cy="-1176.1503"
       fill="#1f2d41"
       ry="47.377987"
       rx="47.192783"
       id="ellipse1100-7"
       style="fill:#1f2d41;fill-opacity:1;stroke-width:0.523184"
       transform="rotate(24.97982)" /><g
       id="g6574"
       transform="matrix(0.82792317,-0.43982891,0.43982891,0.82792317,19.847106,-992.78221)"><rect
         transform="matrix(0.99992672,0.01210623,-0.00913662,0.99995826,0,0)"
         rx="15.489942"
         style="fill:#4c6c9c;fill-opacity:1;stroke:none;stroke-width:30.0531;stroke-miterlimit:4;stroke-dasharray:none"
         id="rect7773-4-9-3-6-6-0-0-84-7-7-8-0"
         width="147.57478"
         height="147.57478"
         x="536.62073"
         y="483.13272"
         ry="15.489942" /><path
         style="fill:#ffffff;fill-opacity:1;stroke:#ffffff;stroke-width:2;stroke-linecap:round;stroke-linejoin:miter;stroke-miterlimit:4;stroke-dasharray:none;stroke-opacity:1"
         d="m 629.89282,490.75027 -0.0191,37.44064 c -6.55062,2.66825 -11.16965,9.07925 -11.1716,16.60081 -0.005,2.46547 0.49249,4.80512 1.38731,6.94567 l -45.58016,45.40526 c -2.13715,-0.90301 -4.48604,-1.40472 -6.93964,-1.41448 -9.93218,-0.0344 -17.98332,7.98574 -17.99459,17.92545 -0.006,9.9269 8.04337,18.00689 17.97393,18.0429 9.93977,0.0268 17.99129,-7.99331 17.99501,-17.92548 -0.002,-2.0147 -0.3456,-3.95716 -0.95505,-5.76862 l 45.16246,-44.98955 -0.0131,34.31145 c -6.49772,2.68628 -11.06556,9.08386 -11.07239,16.55791 -10e-4,9.94137 8.04207,18.01544 17.98131,18.04989 9.93543,0.031 17.98763,-7.99001 17.99036,-17.92124 0.008,-7.11595 -4.12973,-13.25387 -10.11411,-16.19117 l 0.0136,-36.78718 c 5.98835,-2.8952 10.12513,-9.00705 10.12969,-16.11952 0.004,-7.06919 -4.075,-13.17458 -10.00737,-16.13301 l 0.0173,-37.95903 z m 47.63797,0.22782 c 0.20559,0.0388 0.40924,0.0826 0.61184,0.12952 0.15595,-0.0798 0.33278,-0.125 0.5209,-0.1241 z"
         id="rect2467"
         inkscape:connector-curvature="0" /></g><path
       style="fill:#1f2d41;fill-opacity:1;stroke:none;stroke-width:0.930324;stroke-linejoin:round;stroke-opacity:1;paint-order:fill markers stroke"
       d="m 777.46896,-988.56324 c 2.2204,0.88865 4.3331,1.68174 5.9249,2.79909 1.7069,1.6367 2.1772,3.45945 2.8614,5.52644 l 19.5073,67.05652 c 0.2623,5.0615 2.6935,6.57699 -5.8516,12.1538 -6.2961,4.20039 -8.0393,3.06126 -13.4451,-2.02482 l -27.0869,-46.31206 c -1.1179,-1.77892 -4.7852,-8.50536 -7.6595,-10.35194 -2.9642,-1.93816 -7.4062,-1.64508 -9.5209,-1.49477 l -28.8,1.06666 c 8.7698,-16.99882 8.5333,-36.26667 3.2,-49.06668 18.1868,6.0501 31.4436,10.41756 60.8704,20.64776 z"
       id="path4412-7"
       sodipodi:nodetypes="cccccccccccc" /><path
       style="fill:#1f2d41;fill-opacity:1;stroke:none;stroke-width:0.9375;stroke-linejoin:round;stroke-opacity:1;paint-order:fill markers stroke"
       d="m 608.86526,-964.41099 c -4.8055,24.40225 -10.2443,48.67446 -15.4856,72.98575 -0.3155,2.407 -0.6617,4.6712 -0.4695,6.63672 0.5881,2.32638 1.9453,3.65203 3.4103,5.28899 l 48.8475,50.72465 c 4.2812,2.75857 4.4082,5.66507 13.4615,0.89249 6.75,-3.47076 6.6132,-5.58092 4.8355,-12.90028 l -27.0534,-47.07183 c -1.0012,-1.87661 -5.0615,-8.47736 -5.2594,-11.94097 -0.2336,-3.58874 2.2021,-7.37065 3.3711,-9.16549 l 19.142,-23.45002 c -20.4733,-1.80845 -37.3334,-18.13334 -44.8,-32.00001 z"
       id="path4412-7-7"
       sodipodi:nodetypes="cccccccccccc" /><g
       id="g17949"
       transform="matrix(0.9375,0,0,0.9375,800.14646,-698.92852)"
       style="stroke:none;stroke-width:1.1;stroke-dasharray:none;stroke-opacity:1"><rect
         transform="matrix(-0.00148489,0.9999989,-0.9999989,0.00148489,0,0)"
         rx="15.489941"
         style="fill:#4c6c9c;fill-opacity:1;stroke:none;stroke-width:3.00001;stroke-miterlimit:4;stroke-dasharray:none;stroke-opacity:1"
         id="rect7773-4-9-3-6-6-0-0-84-7-7-8-0-0-1"
         width="147.57478"
         height="147.57478"
         x="-96.604118"
         y="332.95547"
         ry="15.489941" /><path
         id="rect17810"
         style="fill:#ffffff;stroke:none;stroke-width:1.1;stroke-linejoin:round;stroke-dasharray:none;stroke-opacity:1;paint-order:fill markers stroke"
         d="m -443.40417,-76.94041 c -0.90732,0.0168 -1.34766,0.14454 -1.34766,0.14454 -4.84488,11.37262 -2.21769,19.93888 -1.4082,22.06445 -5.4973,5.69971 -8.9618,13.05771 -9.20898,22.16797 -0.86759,31.9785003 18.42454,39.66348 36.90429,42.2753899 -2.44326,2.0193201 -4.70287,5.6452901 -5.59961,11.0175801 -4.82027,2.00323 -17.00217,5.36365 -24.09961,-7.59571 0,0 -4.19402,-8.13311 -12.55859,-8.94922 0,0 -8.14053,-0.32662 -0.70898,5.0585999 0,0 5.40082,2.7148001 8.93554,12.4628901 0,0 4.49477,15.02793 27.84961,10.60937 -0.15327,6.97463 -0.2546,13.55229 -0.30859,15.54102 -0.0345,1.27338 -0.44765,3.54936 -1.42578,3.80469 h 44.48828 c -1.24377,-0.47602 -1.22393,-2.84002 -1.20313,-3.60742 0.0745,-2.74885 -0.0628,-10.80596 0.24024,-21.97266 0.21124,-7.78628 -2.31899,-12.93826 -5.24219,-15.60938 18.64005,-1.5619001 38.35684,-8.0906 39.22656,-40.14648 0.24717,-9.11027 -2.78983,-16.64309 -7.98242,-22.63281 0.92357,-2.07854 4.01203,-10.4905 -0.21875,-22.10938 0,0 -6.93806,-2.43192 -23.16016,7.9336 -6.61945,-2.03007 -13.74041,-3.15136 -20.83203,-3.37696 -7.09341,-0.15927 -14.2575,0.57561 -20.96484,2.24414 -11.74061,-8.42277 -18.65305,-9.37478 -21.375,-9.32422 z" /></g><path
       style="fill:#1f2d41;fill-opacity:1;stroke:none;stroke-width:0.9375;stroke-linejoin:round;stroke-opacity:1;paint-order:fill markers stroke"
       d="m 286.7426,-636.50405 32.8125,57.28593 h 455.79386 v -57.5339 l -488.60636,0.50578 z"
       id="path7281" /><path
       style="fill:#1f2d41;fill-opacity:1;stroke:none;stroke-width:0.9375;stroke-linejoin:round;stroke-opacity:1;paint-order:fill markers stroke"
       d="m 280.63205,-647.17219 32.8125,57.28593 h 455.79381 v -57.5339 l -488.60631,0.50578 z"
       id="path7281-3" /><path
       style="fill:#1f2d41;fill-opacity:1;stroke:none;stroke-width:0.9375;stroke-linejoin:round;stroke-opacity:1;paint-order:fill markers stroke"
       d="m 414.09471,-419.23742 32.8125,56.41406 325.55035,-0.0187 v -56.69053 z"
       id="path7283" /><path
       style="fill:#1f2d41;fill-opacity:1;stroke:none;stroke-width:0.9375;stroke-linejoin:round;stroke-opacity:1;paint-order:fill markers stroke"
       d="m 407.06346,-430.56945 32.8125,56.41406 325.5503,-0.0187 v -56.69053 z"
       id="path7283-2" /><path
       style="fill:#1f2d41;fill-opacity:1;stroke:none;stroke-width:0.815441;stroke-linejoin:round;stroke-opacity:1;paint-order:fill markers stroke"
       d="m 729.80126,-430.86462 70.5321,-0.40772 c 103.1701,-6.60161 91.5428,-148.50371 -10e-5,-147.57177 l -57.6916,-0.24851 h -12.8404 v -26.70747 l 116.3384,5.08279 56.5114,49.07634 2.2871,84.78753 -53.5844,55.21808 -147.8472,0.65347 v -19.88274 z"
       id="path7392"
       sodipodi:nodetypes="cccc" /></g></svg>
